<svg xmlns="http://www.w3.org/2000/svg" xmlns:xlink="http://www.w3.org/1999/xlink" version="1.1" x="0px" y="0px" viewBox="0 0 256 256" enable-background="new 0 0 256 256" xml:space="preserve">
<metadata> Svg Vector Icons : http://www.onlinewebfonts.com/icon </metadata>
<g><g><g><path fill="#191970" d="M102.7,13.3c-5.4,0.6-10,1.2-10.1,1.4c-0.2,0.2,3.2,22,7.6,48.5c4.3,26.6,7.7,48.4,7.5,48.6s-5.8,0.6-12.4,1c-6.7,0.3-18.5,1.2-26.2,1.8c-18.6,1.7-22.6,1.7-24.2-0.2c-2.1-2.3-5.4-10.1-9.7-22.9l-4.1-12l-10.4-0.2c-8.9-0.2-10.5,0-10.5,1c0,0.6,1.4,6.5,3.2,13c1.7,6.5,4.1,16.4,5.2,22.2l2.1,10.4L15.2,150c-2.9,13.3-5.2,24.9-5.2,25.7c0,1.4,0.6,1.5,10.5,1.4l10.4-0.2l4.1-12c4.8-14,8-21.3,10.1-23.2c1.4-1.4,2.3-1.4,19.2,0.4c9.7,1,23.7,2,31,2.2c7.4,0.2,13.4,0.7,13.4,1c0,0.3-3.8,22.1-8.4,48.3c-4.5,26.2-8.2,47.8-8.1,47.9c0.2,0.1,5.2,0.7,11.2,1.3c9.9,1,11.1,1,11.5-0.2c0.3-0.7,8.7-23,18.6-49.5l18.1-48.3l28.6-0.5c27.4-0.5,29-0.6,37.3-2.6c16.2-3.9,25.2-7.8,27.4-11.8c1-1.9,1-2.3-0.2-4.3c-2.8-4.3-17.9-9.8-35.1-12.8c-5.3-0.9-13.2-1.2-32.4-1.2h-25.4l-1.4-3.4c-0.6-1.8-9.1-24.2-18.6-49.6c-11.6-31.1-17.7-46.3-18.5-46.3C113.1,12.3,108.1,12.7,102.7,13.3z"/></g></g></g>
</svg>